<svg width="24" height="24" viewBox="0 0 24 24" fill="none" xmlns="http://www.w3.org/2000/svg">
<path d="M11.5 6.99991C12.163 6.99991 12.7989 7.2633 13.2677 7.73214C13.7366 8.20098 14 8.83687 14 9.49991C14 10.163 13.7366 10.7988 13.2677 11.2677C12.7989 11.7365 12.163 11.9999 11.5 11.9999C10.8369 11.9999 10.2011 11.7365 9.73221 11.2677C9.26337 10.7988 8.99998 10.163 8.99998 9.49991C8.99998 8.83687 9.26337 8.20098 9.73221 7.73214C10.2011 7.2633 10.8369 6.99991 11.5 6.99991ZM11.5 7.99991C11.1022 7.99991 10.7206 8.15794 10.4393 8.43925C10.158 8.72055 9.99998 9.10208 9.99998 9.49991C9.99998 9.89773 10.158 10.2793 10.4393 10.5606C10.7206 10.8419 11.1022 10.9999 11.5 10.9999C11.8978 10.9999 12.2793 10.8419 12.5606 10.5606C12.8419 10.2793 13 9.89773 13 9.49991C13 9.10208 12.8419 8.72055 12.5606 8.43925C12.2793 8.15794 11.8978 7.99991 11.5 7.99991ZM6.79998 12.3569L11.5 20.0869L16.2 12.3569C16.7069 11.5229 16.9827 10.5691 16.9992 9.59324C17.0157 8.61742 16.7722 7.65479 16.2938 6.80415C15.8154 5.95351 15.1192 5.24549 14.2768 4.75276C13.4343 4.26003 12.4759 4.00034 11.5 4.00034C10.524 4.00034 9.56564 4.26003 8.7232 4.75276C7.88076 5.24549 7.1846 5.95351 6.70617 6.80415C6.22774 7.65479 5.98428 8.61742 6.00076 9.59324C6.01725 10.5691 6.29309 11.5229 6.79998 12.3569ZM17.054 12.8769L11.5 22.0119L5.94598 12.8769C5.3471 11.8913 5.02126 10.764 5.00189 9.61085C4.98253 8.45768 5.27034 7.32013 5.83578 6.31492C6.40123 5.30972 7.22395 4.47307 8.21952 3.89082C9.21509 3.30858 10.3476 3.00171 11.501 3.00171C12.6543 3.00171 13.7869 3.30858 14.7824 3.89082C15.778 4.47307 16.6007 5.30972 17.1662 6.31492C17.7316 7.32013 18.0194 8.45768 18.0001 9.61085C17.9807 10.764 17.6549 11.8913 17.056 12.8769H17.054Z" fill="#030F27"/>
</svg>
