<svg width="20" height="20" viewBox="0 0 20 20" fill="none" xmlns="http://www.w3.org/2000/svg">
<path d="M9.58331 5.8333C10.1358 5.8333 10.6658 6.05279 11.0565 6.44349C11.4472 6.83419 11.6666 7.3641 11.6666 7.91663C11.6666 8.46917 11.4472 8.99907 11.0565 9.38977C10.6658 9.78047 10.1358 9.99996 9.58331 9.99996C9.03078 9.99996 8.50088 9.78047 8.11018 9.38977C7.71947 8.99907 7.49998 8.46917 7.49998 7.91663C7.49998 7.3641 7.71947 6.83419 8.11018 6.44349C8.50088 6.05279 9.03078 5.8333 9.58331 5.8333ZM9.58331 6.66663C9.25179 6.66663 8.93385 6.79833 8.69943 7.03275C8.46501 7.26717 8.33331 7.58511 8.33331 7.91663C8.33331 8.24815 8.46501 8.56609 8.69943 8.80052C8.93385 9.03494 9.25179 9.16663 9.58331 9.16663C9.91484 9.16663 10.2328 9.03494 10.4672 8.80052C10.7016 8.56609 10.8333 8.24815 10.8333 7.91663C10.8333 7.58511 10.7016 7.26717 10.4672 7.03275C10.2328 6.79833 9.91484 6.66663 9.58331 6.66663ZM5.66665 10.2975L9.58331 16.7391L13.5 10.2975C13.9224 9.60247 14.1523 8.80759 14.166 7.99441C14.1797 7.18123 13.9768 6.37903 13.5782 5.67017C13.1795 4.9613 12.5993 4.37128 11.8973 3.96067C11.1953 3.55006 10.3966 3.33366 9.58331 3.33366C8.77002 3.33366 7.97137 3.55006 7.26934 3.96067C6.5673 4.37128 5.98717 4.9613 5.58848 5.67017C5.18979 6.37903 4.9869 7.18123 5.00063 7.99441C5.01437 8.80759 5.24424 9.60247 5.66665 10.2975ZM14.2116 10.7308L9.58331 18.3433L4.95498 10.7308C4.45592 9.90942 4.18438 8.97005 4.16824 8.00908C4.15211 7.04811 4.39195 6.10015 4.86315 5.26248C5.33436 4.42481 6.01996 3.7276 6.8496 3.24239C7.67924 2.75719 8.62304 2.50146 9.58415 2.50146C10.5453 2.50146 11.4891 2.75719 12.3187 3.24239C13.1483 3.7276 13.8339 4.42481 14.3051 5.26248C14.7763 6.10015 15.0162 7.04811 15.0001 8.00908C14.9839 8.97005 14.7124 9.90942 14.2133 10.7308H14.2116Z" fill="#BE0000"/>
</svg>
