<svg width="64" height="65" viewBox="0 0 64 65" fill="none" xmlns="http://www.w3.org/2000/svg">
<path d="M6.13068 56.3325C4.59109 56.3325 3.62884 54.6659 4.39862 53.3325L28.9346 10.834C29.7044 9.5006 31.6289 9.5006 32.3987 10.834L56.9346 53.3325C57.7044 54.6659 56.7422 56.3325 55.2026 56.3325H6.13068ZM54.048 53.6659L30.6666 13.1672L7.28529 53.6659H54.048ZM30.6666 37.6659C29.9302 37.6659 29.3333 37.0689 29.3333 36.3325V28.3325C29.3333 27.5961 29.9302 26.9992 30.6666 26.9992C31.403 26.9992 32 27.5961 32 28.3325V36.3325C32 37.0689 31.403 37.6659 30.6666 37.6659ZM29.3333 44.3325C29.3333 43.5961 29.9302 42.9992 30.6666 42.9992C31.403 42.9992 32 43.5961 32 44.3325V46.9992C32 47.7356 31.403 48.3325 30.6666 48.3325C29.9302 48.3325 29.3333 47.7356 29.3333 46.9992V44.3325Z" fill="#BE0000"/>
</svg>
