<svg width="24" height="24" viewBox="0 0 24 24" fill="none" xmlns="http://www.w3.org/2000/svg">
<g clip-path="url(#clip0_81_837)">
<path d="M23.3702 18.5151L18.5125 15.2756C17.8961 14.8678 17.0697 15.0019 16.614 15.5839L15.199 17.4032C15.0172 17.643 14.6866 17.7126 14.4235 17.5664L14.1544 17.418C13.2621 16.9317 12.1519 16.3262 9.91501 14.0885C7.67814 11.8509 7.07144 10.7398 6.58509 9.84918L6.4375 9.58002C6.28935 9.317 6.35759 8.98503 6.59746 8.80173L8.41556 7.38716C8.99729 6.93137 9.13166 6.10527 8.72433 5.48863L5.48481 0.630943C5.06736 0.00300447 4.22983 -0.185499 3.58356 0.20299L1.55225 1.4232C0.914006 1.79843 0.445747 2.40612 0.245667 3.11893C-0.485802 5.78413 0.064475 10.3839 6.84028 17.1605C12.2303 22.55 16.2429 23.9994 19.0009 23.9994C19.6356 24.0022 20.2679 23.9196 20.8806 23.7539C21.5936 23.5541 22.2014 23.0858 22.5764 22.4473L23.7978 20.4172C24.1868 19.7708 23.9984 18.9328 23.3702 18.5151ZM23.1087 20.0068L21.89 22.0382C21.6208 22.499 21.1836 22.8378 20.6702 22.9836C18.2098 23.6591 13.9112 23.0996 7.40617 16.5946C0.901117 10.0895 0.341653 5.79135 1.01716 3.33054C1.1632 2.81649 1.50243 2.37879 1.9638 2.10911L3.99511 0.890498C4.27552 0.721773 4.63903 0.803557 4.82018 1.07605L6.57993 3.71805L8.05693 5.93331C8.23381 6.20079 8.17569 6.55928 7.92336 6.75721L6.10483 8.17178C5.55141 8.59495 5.39337 9.36063 5.7341 9.96832L5.8785 10.2307C6.38965 11.1681 7.02513 12.3344 9.34519 14.654C11.6653 16.9737 12.8311 17.6092 13.7681 18.1203L14.0309 18.2651C14.6385 18.6058 15.4042 18.4478 15.8274 17.8944L17.242 16.0758C17.44 15.8236 17.7983 15.7656 18.0659 15.9423L22.9231 19.1818C23.1958 19.3628 23.2776 19.7265 23.1087 20.0068Z" fill="#030F27"/>
<path d="M13.5991 4.00224C17.3524 4.00641 20.3939 7.04801 20.3982 10.8012C20.3982 11.0221 20.5772 11.2012 20.7981 11.2012C21.019 11.2012 21.198 11.0221 21.198 10.8012C21.1934 6.60642 17.794 3.20699 13.5991 3.20239C13.3783 3.20239 13.1992 3.38143 13.1992 3.60232C13.1992 3.82321 13.3783 4.00224 13.5991 4.00224Z" fill="#030F27"/>
<path d="M13.5991 6.4019C16.0277 6.40476 17.9956 8.37275 17.9985 10.8013C17.9985 11.0222 18.1776 11.2012 18.3984 11.2012C18.6193 11.2012 18.7984 11.0222 18.7984 10.8013C18.795 7.93116 16.4692 5.60533 13.5991 5.60205C13.3783 5.60205 13.1992 5.78109 13.1992 6.00198C13.1992 6.22287 13.3783 6.4019 13.5991 6.4019Z" fill="#030F27"/>
<path d="M13.5991 8.80156C14.703 8.80287 15.5975 9.69739 15.5989 10.8013C15.5989 11.0222 15.7779 11.2012 15.9988 11.2012C16.2196 11.2012 16.3987 11.0222 16.3987 10.8013C16.3969 9.25585 15.1446 8.00344 13.5991 8.00171C13.3783 8.00171 13.1992 8.18075 13.1992 8.40163C13.1992 8.62252 13.3783 8.80156 13.5991 8.80156Z" fill="#030F27"/>
</g>
<defs>
<clipPath id="clip0_81_837">
<rect width="24" height="24" fill="white"/>
</clipPath>
</defs>
</svg>
