<svg width="24" height="24" viewBox="0 0 24 24" fill="none" xmlns="http://www.w3.org/2000/svg">
<path d="M14.7709 6.94121C14.7708 6.39323 14.6082 5.85759 14.3037 5.402C13.9992 4.94641 13.5665 4.59135 13.0602 4.3817C12.5539 4.17205 11.9968 4.11723 11.4594 4.22418C10.922 4.33113 10.4283 4.59504 10.0409 4.98255C9.65343 5.37005 9.38958 5.86374 9.2827 6.40119C9.17583 6.93864 9.23072 7.49571 9.44043 8.00196C9.65015 8.50822 10.0053 8.94092 10.4609 9.24535C10.9165 9.54978 11.4522 9.71227 12.0002 9.71227C12.7348 9.71137 13.4391 9.41912 13.9585 8.89963C14.4779 8.38014 14.7701 7.67583 14.7709 6.94121ZM9.88574 6.94121C9.88582 6.52303 10.0099 6.11426 10.2423 5.76659C10.4747 5.41893 10.8049 5.14797 11.1913 4.98799C11.5776 4.82801 12.0028 4.78619 12.4129 4.86782C12.823 4.94945 13.1998 5.15086 13.4954 5.44658C13.7911 5.74231 13.9925 6.11907 14.074 6.52922C14.1556 6.93937 14.1137 7.36449 13.9536 7.75083C13.7936 8.13717 13.5226 8.46738 13.1749 8.6997C12.8271 8.93202 12.4184 9.05602 12.0002 9.05602C11.4395 9.05537 10.902 8.83234 10.5056 8.43587C10.1092 8.03939 9.88629 7.50186 9.88574 6.94121Z" fill="#030F27"/>
<path d="M23.1242 22.7003L20.4494 15.6878C20.4256 15.6257 20.3836 15.5723 20.3289 15.5346C20.2741 15.4969 20.2093 15.4767 20.1428 15.4766H15.0803C15.1112 15.4262 15.142 15.3773 15.1729 15.3266C17.1209 12.1016 18.1011 9.28052 18.087 6.94277C18.0873 5.32839 17.4463 3.78003 16.3049 2.63831C15.1636 1.49658 13.6154 0.85501 12.0011 0.854736C10.3867 0.854463 8.83834 1.49551 7.69661 2.63685C6.55489 3.77819 5.91332 5.32633 5.91304 6.94071C5.89898 9.28052 6.87923 12.102 8.82717 15.3266C8.85811 15.3778 8.88886 15.4268 8.91979 15.4766H3.85729C3.79083 15.4767 3.72594 15.4969 3.6712 15.5346C3.61646 15.5723 3.57445 15.6257 3.55073 15.6878L0.876231 22.7003C0.857174 22.75 0.850501 22.8035 0.856788 22.8564C0.863075 22.9092 0.882133 22.9597 0.912315 23.0035C0.942498 23.0474 0.982897 23.0832 1.03002 23.1079C1.07715 23.1326 1.12958 23.1455 1.18279 23.1454H22.8177C22.8709 23.1455 22.9233 23.1326 22.9704 23.1079C23.0176 23.0832 23.058 23.0474 23.0881 23.0035C23.1183 22.9597 23.1374 22.9092 23.1437 22.8564C23.15 22.8035 23.1433 22.75 23.1242 22.7003ZM6.56948 6.94127C6.5696 6.22809 6.7102 5.52192 6.98323 4.86308C7.25627 4.20424 7.65639 3.60563 8.16077 3.10142C8.66515 2.59722 9.2639 2.19729 9.92284 1.92449C10.5818 1.65168 11.288 1.51133 12.0012 1.51145C12.7143 1.51158 13.4205 1.65217 14.0794 1.9252C14.7382 2.19824 15.3368 2.59837 15.841 3.10275C16.3452 3.60713 16.7451 4.20588 17.0179 4.86481C17.2908 5.52375 17.4311 6.22997 17.431 6.94314C17.4591 11.604 13.1016 17.3526 12.0002 18.7311C10.8989 17.3531 6.54117 11.6061 6.56948 6.94127ZM11.7503 19.4623C11.7811 19.4985 11.8194 19.5276 11.8626 19.5476C11.9057 19.5675 11.9527 19.5779 12.0002 19.5779C12.0478 19.5779 12.0947 19.5675 12.1379 19.5476C12.1811 19.5276 12.2194 19.4985 12.2502 19.4623C13.1214 18.4011 13.929 17.2892 14.6689 16.1325H19.9165L20.3365 17.2341L10.0819 20.8811L6.42679 16.132H9.33117C10.0712 17.2888 10.879 18.4009 11.7503 19.4623ZM10.0705 21.5811H10.0724L16.1899 19.4061L18.5627 22.4891H7.51898L10.0705 21.5811ZM4.08361 16.132H5.59861L9.43148 21.1123L5.56092 22.489H1.65904L4.08361 16.132ZM19.3917 22.4891L16.84 19.1738L20.5712 17.8468L22.3418 22.4891H19.3917Z" fill="#030F27"/>
</svg>
