<svg width="20" height="20" viewBox="0 0 20 20" fill="none" xmlns="http://www.w3.org/2000/svg">
<path d="M4.16669 4.1665H15C15.6631 4.1665 16.2989 4.4299 16.7678 4.89874C17.2366 5.36758 17.5 6.00346 17.5 6.6665V14.1665C17.5 14.8295 17.2366 15.4654 16.7678 15.9343C16.2989 16.4031 15.6631 16.6665 15 16.6665H4.16669C3.50365 16.6665 2.86776 16.4031 2.39892 15.9343C1.93008 15.4654 1.66669 14.8295 1.66669 14.1665V6.6665C1.66669 6.00346 1.93008 5.36758 2.39892 4.89874C2.86776 4.4299 3.50365 4.1665 4.16669 4.1665ZM4.16669 4.99984C3.76002 4.99984 3.38669 5.14567 3.09752 5.38817L9.58335 9.59984L16.0692 5.38817C15.7697 5.13685 15.391 4.99932 15 4.99984H4.16669ZM9.58335 10.5932L2.61169 6.0665C2.53776 6.2579 2.4999 6.46133 2.50002 6.6665V14.1665C2.50002 14.6085 2.67561 15.0325 2.98818 15.345C3.30074 15.6576 3.72466 15.8332 4.16669 15.8332H15C15.442 15.8332 15.866 15.6576 16.1785 15.345C16.4911 15.0325 16.6667 14.6085 16.6667 14.1665V6.6665C16.6667 6.45484 16.6275 6.25234 16.555 6.0665L9.58335 10.5923V10.5932Z" fill="#BE0000"/>
</svg>
