<svg width="93" height="96" viewBox="0 0 93 96" fill="none" xmlns="http://www.w3.org/2000/svg">
<rect x="-19" y="-16" width="112" height="112" rx="56" fill="#BE0000"/>
<g clip-path="url(#clip0_119_706)">
<path d="M59.5934 64H14.4062C13.6296 64 13 63.3703 13 62.5937C13 61.8171 13.6296 61.1875 14.4062 61.1875H59.5934C60.37 61.1875 60.9996 61.8171 60.9996 62.5937C60.9996 63.3703 60.37 64 59.5934 64Z" fill="white"/>
<path d="M22.9374 63.9999H17.3125C16.5359 63.9999 15.9062 63.3703 15.9062 62.5937V52.2812C15.9062 50.9889 16.9576 49.9375 18.25 49.9375H22C23.2923 49.9375 24.3437 50.9889 24.3437 52.2812V62.5937C24.3437 63.3703 23.7141 63.9999 22.9374 63.9999ZM18.7187 61.1874H21.5312V52.75H18.7187V61.1874ZM22 52.75H22.0009H22Z" fill="white"/>
<path d="M34.1874 64.0001H28.5625C27.7859 64.0001 27.1562 63.3705 27.1562 62.5939V48.9065C27.1562 47.6141 28.2076 46.5627 29.5 46.5627H33.25C34.5423 46.5627 35.5937 47.6141 35.5937 48.9065V62.5939C35.5937 63.3705 34.9641 64.0001 34.1874 64.0001ZM29.9687 61.1876H32.7812V49.3752H29.9687V61.1876ZM33.25 49.3752H33.2509H33.25Z" fill="white"/>
<path d="M45.4374 63.9998H39.8125C39.0359 63.9998 38.4062 63.3702 38.4062 62.5936V43.75C38.4062 42.4576 39.4576 41.4062 40.75 41.4062H44.5C45.7923 41.4062 46.8437 42.4576 46.8437 43.75V62.5936C46.8437 63.3702 46.2141 63.9998 45.4374 63.9998ZM41.2187 61.1873H44.0312V44.2187H41.2187V61.1873ZM44.5 44.2187H44.5009H44.5Z" fill="white"/>
<path d="M56.6874 64H51.0625C50.2859 64 49.6562 63.3704 49.6562 62.5938V34.3752C49.6562 33.0829 50.7076 32.0315 52 32.0315H55.75C57.0423 32.0315 58.0937 33.0829 58.0937 34.3752V62.5938C58.0937 63.3704 57.4641 64 56.6874 64ZM52.4687 61.1875H55.2812V34.844H52.4687V61.1875ZM55.75 34.844H55.7509H55.75Z" fill="white"/>
<path d="M14.4062 46.2161C13.6296 46.2161 13 45.5864 13 44.8098C13 44.0332 13.6296 43.4036 14.4062 43.4036C22.6755 43.4036 31.679 40.3924 39.758 34.9246C47.1905 29.8945 53.1131 23.3002 56.0069 16.8325C56.3242 16.1236 57.156 15.806 57.8648 16.1233C58.5738 16.4405 58.8913 17.2723 58.5741 17.9812C55.4723 24.9137 49.1886 31.9383 41.3344 37.2538C32.7949 43.0332 23.2315 46.2161 14.4062 46.2161Z" fill="white"/>
<path d="M59.5925 27.4071C58.9715 27.4071 58.4034 26.9928 58.2351 26.3645L56.2962 19.1288L49.0606 21.0676C48.3101 21.2688 47.5393 20.8235 47.3383 20.0733C47.1373 19.3231 47.5824 18.5521 48.3326 18.3511L56.9266 16.0483C57.6771 15.8472 58.4479 16.2925 58.6489 17.0426L60.9517 25.6366C61.1526 26.3868 60.7075 27.1579 59.9573 27.3589C59.8354 27.3915 59.7129 27.4071 59.5925 27.4071Z" fill="white"/>
</g>
<defs>
<clipPath id="clip0_119_706">
<rect width="48" height="48" fill="white" transform="translate(13 16)"/>
</clipPath>
</defs>
</svg>
